<?xml version="1.0" ?>
<!DOCTYPE svg  PUBLIC '-//W3C//DTD SVG 1.1//EN'  'http://www.w3.org/Graphics/SVG/1.1/DTD/svg11.dtd'>
<!-- Uploaded to: SVG Repo, www.svgrepo.com, Generator: SVG Repo Mixer Tools -->
<svg width="800px" height="800px" viewBox="0 0 32 32" enable-background="new 0 0 32 32" id="_x3C_Layer_x3E_" version="1.1" xml:space="preserve" xmlns="http://www.w3.org/2000/svg" xmlns:xlink="http://www.w3.org/1999/xlink">
<g id="car_x2C__SUV_x2C__automobile_1_">
<g id="XMLID_751_">
<line fill="none" id="XMLID_752_" stroke="#263238" stroke-linecap="round" stroke-linejoin="round" stroke-miterlimit="10" x1="3.246" x2="1.908" y1="17.898" y2="18.208"/>
<line fill="none" id="XMLID_753_" stroke="#263238" stroke-linecap="round" stroke-linejoin="round" stroke-miterlimit="10" x1="28.968" x2="27.629" y1="12.955" y2="13.264"/>
<path d="    M4.652,11.725l-0.289,0.934c-0.443,1.429,0.83,2.8,2.287,2.464l4.268-0.985" fill="none" id="XMLID_754_" stroke="#263238" stroke-linecap="round" stroke-linejoin="round" stroke-miterlimit="10"/>
<line fill="none" id="XMLID_755_" stroke="#263238" stroke-linecap="round" stroke-linejoin="round" stroke-miterlimit="10" x1="11.9" x2="20" y1="22.865" y2="20.995"/>
<path d="    M27.768,18.749l2.732-1.67l-1.43-4.563c-0.27-0.86-1.096-1.421-1.994-1.354l-4.824,0.359l-4.396-3.02    c-1.344-0.923-3.013-1.239-4.602-0.873L4.566,9.634c-0.679,0.157-1.221,0.665-1.422,1.331L1.5,16.44l1.468,6.358    c0.13,0.563,0.497,1.019,0.979,1.276" fill="none" id="XMLID_756_" stroke="#263238" stroke-linecap="round" stroke-linejoin="round" stroke-miterlimit="10"/>
<circle cx="24.796" cy="20.385" fill="none" id="XMLID_757_" r="3.393" stroke="#263238" stroke-miterlimit="10"/>
<path d="M12.045,23.329c0.42,1.823-0.721,3.648-2.543,4.069    c-1.823,0.421-3.648-0.72-4.069-2.543c-0.421-1.823,0.72-3.648,2.543-4.069S11.624,21.506,12.045,23.329z" fill="none" id="XMLID_758_" stroke="#263238" stroke-miterlimit="10"/>
<circle cx="24.796" cy="20.385" fill="none" id="XMLID_759_" r="1.454" stroke="#263238" stroke-miterlimit="10"/>
<path d="M10.155,23.765    c0.181,0.784-0.306,1.563-1.089,1.744c-0.785,0.181-1.563-0.306-1.744-1.09c-0.182-0.784,0.305-1.563,1.09-1.744    C9.195,22.495,9.975,22.981,10.155,23.765z" fill="none" id="XMLID_760_" stroke="#263238" stroke-miterlimit="10"/>
<polyline fill="none" id="XMLID_761_" points="    12.136,9.916 13.279,13.592 22.252,11.521   " stroke="#263238" stroke-linecap="round" stroke-linejoin="round" stroke-miterlimit="10"/>
<line fill="none" id="XMLID_762_" stroke="#263238" stroke-linecap="round" stroke-linejoin="round" stroke-miterlimit="10" x1="20" x2="12.443" y1="19.005" y2="20.75"/>
<line fill="none" id="XMLID_763_" stroke="#263238" stroke-linecap="round" stroke-linejoin="round" stroke-miterlimit="10" x1="29.622" x2="28.283" y1="15.789" y2="16.098"/>
<g id="XMLID_764_">
<line fill="none" id="XMLID_765_" stroke="#263238" stroke-linecap="round" stroke-linejoin="round" stroke-miterlimit="10" x1="3.505" x2="23.989" y1="27.5" y2="27.5"/>
<line fill="none" id="XMLID_766_" stroke="#263238" stroke-linecap="round" stroke-linejoin="round" stroke-miterlimit="10" x1="1.589" x2="1.489" y1="27.5" y2="27.5"/>
<line fill="none" id="XMLID_767_" stroke="#263238" stroke-linecap="round" stroke-linejoin="round" stroke-miterlimit="10" x1="30.489" x2="12.489" y1="29.5" y2="29.5"/>
</g>
<g id="XMLID_768_">
<g id="mining_1_">
<g id="XMLID_770_">
<g id="XMLID_771_">
<g id="XMLID_772_">
<g id="XMLID_773_">
<polygon fill="none" id="XMLID_774_" points="          30.5,24.5 28,23.4 20,24.5 18,27.5 30.5,27.5         " stroke="#263238" stroke-linecap="round" stroke-linejoin="round" stroke-miterlimit="10"/>
</g>
</g>
</g>
</g>
</g>
</g>
</g>
</g>
</svg>